<svg width="30" height="30" viewBox="0 0 30 30" fill="none" xmlns="http://www.w3.org/2000/svg">
<path d="M30 14.9879C30.001 16.3704 29.8818 17.488 28.4993 17.4891L17.5018 17.4978L17.51 28.4953C17.511 29.8753 16.3936 29.9987 15.0111 29.9998C13.6286 30.0009 12.511 29.8793 12.51 28.4993L12.5018 17.5018L1.50435 17.5105C0.124347 17.5116 0.0010178 16.3942 -8.08737e-06 15.0117C-0.00103398 13.6292 0.120636 12.5116 1.50064 12.5105L12.4981 12.5018L12.49 1.50428C12.4889 0.121785 13.6064 0.000896926 14.9889 -0.000201746C16.3714 -0.00130042 17.4889 0.117811 17.49 1.50031L17.4981 12.4978L28.4956 12.4891C29.8781 12.488 29.999 13.6054 30 14.9879Z" fill="#550D08"/>
</svg>
